<svg xmlns="http://www.w3.org/2000/svg" version="1.1" xmlns:xlink="http://www.w3.org/1999/xlink" xmlns:svgjs="http://svgjs.dev/svgjs" width="100%" height="100%" viewBox="0 0 1000 600"><rect width="1000" height="600" x="0" y="0" fill="transparent"/><g><circle r="166.66666666666666" cx="222.22222391764322" cy="244.4444359673398" fill="#8000ff" transform="matrix(2.2499999313354513,0,0,2.2499999313354517,0,-249.99999847412175)"/><path d="M224.65448224313576 319.4444496966505L224.65448224313576 319.4444496966505Q205.51644041591933 319.4444496966505 191.69096538354893 309.8434253686155Q177.86549035117855 300.21039762615374 170.37669137531125 283.1205743222514Q162.88789239944396 265.9987476039223 162.88789239944396 243.4043370186133L162.88789239944396 243.4043370186133Q162.88789239944396 219.3377693696722 171.01675966384693 202.85601093987881Q179.1456269282499 186.37425251008537 193.13111903275419 177.9253511014146Q207.14861455168528 169.444446278317 224.65448224313576 169.444446278317L224.65448224313576 169.444446278317Q247.7929508737001 169.444446278317 261.9064566359116 181.02968230081257Q276.019962398123 192.6149183233081 281.33252919296905 211.14489527641567L281.33252919296905 211.14489527641567L261.97046346476515 215.08131525091002Q257.48998544501546 201.60787777723422 247.6329338015662 193.57502075611163Q237.77588215811693 185.57416714941579 224.65448224313576 185.57416714941579L224.65448224313576 185.57416714941579Q213.22926329277414 185.57416714941579 203.62823896473913 192.1028636924796Q193.99521122227736 198.59955682111664 188.138586382176 211.4969328351103Q182.24995812764786 224.39430884910396 182.24995812764786 243.4043370186133L182.24995812764786 243.4043370186133Q182.24995812764786 260.6861808090763 186.92245663395823 274.1916216971788Q191.5949551402686 287.66505917085465 200.97195556731612 295.37788204770936Q210.34895599436362 303.0907049245642 224.65448224313576 303.0907049245642L224.65448224313576 303.0907049245642Q241.80831237589163 303.0907049245642 251.88938792032837 293.87372156965057Q261.97046346476515 284.65673821473695 261.97046346476515 269.6791402630024L261.97046346476515 269.6791402630024L281.55655309395655 269.6791402630024Q281.55655309395655 285.2327996744191 274.41979167678386 296.36998789493964Q267.28303025961117 307.47517270103344 254.41765766004426 313.459811198842Q241.58428847490416 319.4444496966505 224.65448224313576 319.4444496966505Z " fill="white" transform="matrix(2.2499999313354513,0,0,2.2499999313354517,0,-249.99999847412175)"/><path d="MNaN 244.44444783528658 " fill="#8000ff" transform="matrix(2.2499999313354513,0,0,2.2499999313354517,0,-249.99999847412175)"/></g></svg>